<svg width="374" height="405" viewBox="0 0 374 405" fill="none" xmlns="http://www.w3.org/2000/svg">
<g opacity="0.49">
<path d="M411 243.666L410.994 243.673C409.054 245.881 406.874 247.095 404.721 247.366C402.584 247.635 400.376 246.989 398.311 245.347C396.229 243.691 394.39 241.094 393.061 237.757C391.736 234.431 390.995 230.561 390.939 226.567L390.939 30.8795L390.939 26.8372L388.208 29.8169L192.183 243.648L192.166 243.667L192.149 243.686C190.227 245.924 188.057 247.157 185.914 247.439C183.789 247.718 181.59 247.075 179.535 245.426C177.463 243.762 175.638 241.148 174.335 237.794C173.035 234.449 172.331 230.563 172.321 226.574L172.321 15.8259L172.321 11.5654L169.553 14.8043L-26.027 243.673C-26.0294 243.675 -26.0317 243.678 -26.034 243.681C-27.9715 245.885 -30.1493 247.096 -32.2996 247.366C-34.4362 247.635 -36.6445 246.989 -38.7095 245.347C-40.7918 243.692 -42.6309 241.094 -43.9597 237.758C-45.2847 234.431 -46.0255 230.559 -46.0815 226.565L-46.0815 34.9852C-46.0827 31.5166 -45.5587 28.1129 -44.565 25.0659C-43.57 22.0148 -42.1467 19.4504 -40.4562 17.5577L-40.4474 17.5477L228.075 -288.297C228.077 -288.3 228.08 -288.304 228.083 -288.307C231.091 -291.621 234.507 -293.465 237.937 -293.82C241.357 -294.175 244.845 -293.058 248.044 -290.433C251.26 -287.796 254.04 -283.746 256.02 -278.646C257.997 -273.555 259.075 -267.672 259.119 -261.634L259.12 -45.7574L259.12 -41.7194L261.85 -44.694L468.203 -269.473L468.231 -269.503L468.258 -269.535C471.234 -273.142 474.683 -275.23 478.171 -275.758C481.637 -276.283 485.191 -275.276 488.459 -272.694C491.747 -270.097 494.596 -266.016 496.611 -260.832C498.623 -255.655 499.695 -249.653 499.685 -243.511L499.685 -243.508L499.685 132.834L499.685 132.838C499.694 136.224 499.193 139.552 498.236 142.539C497.279 145.527 495.905 148.05 494.268 149.928C494.266 149.93 494.265 149.931 494.263 149.933L411 243.666Z" fill="url(#paint0_linear_6981_117672)" stroke="url(#paint1_linear_6981_117672)" stroke-width="3.14491"/>
<path d="M393.123 321.845L393.117 321.851C391.177 324.06 388.997 325.274 386.844 325.545C384.707 325.814 382.499 325.167 380.434 323.526C378.352 321.87 376.513 319.272 375.184 315.936C373.859 312.61 373.118 308.739 373.062 304.745L373.062 109.058L373.062 105.016L370.331 107.996L174.306 321.826L174.289 321.845L174.272 321.865C172.35 324.103 170.18 325.336 168.037 325.617C165.912 325.896 163.713 325.253 161.658 323.604C159.586 321.941 157.761 319.326 156.458 315.973C155.158 312.627 154.454 308.742 154.444 304.752L154.444 94.0046L154.444 89.7441L151.676 92.983L-43.904 321.852C-43.9063 321.854 -43.9086 321.857 -43.9109 321.859C-45.8484 324.063 -48.0262 325.274 -50.1766 325.545C-52.3131 325.814 -54.5214 325.167 -56.5865 323.526C-58.6688 321.87 -60.5079 319.272 -61.8366 315.936C-63.1616 312.609 -63.9024 308.738 -63.9585 304.743L-63.9585 113.164C-63.9597 109.695 -63.4356 106.292 -62.442 103.245C-61.4469 100.194 -60.0237 97.6292 -58.3331 95.7364L-58.3243 95.7264L210.198 -210.119C210.201 -210.122 210.203 -210.125 210.206 -210.128C213.214 -213.443 216.63 -215.286 220.06 -215.642C223.48 -215.996 226.968 -214.879 230.167 -212.254C233.383 -209.617 236.163 -205.567 238.143 -200.468C240.12 -195.376 241.198 -189.493 241.243 -183.455L241.243 32.4213L241.243 36.4593L243.973 33.4847L450.326 -191.294L450.354 -191.325L450.381 -191.357C453.357 -194.963 456.806 -197.051 460.294 -197.58C463.76 -198.105 467.314 -197.097 470.582 -194.515C473.87 -191.918 476.719 -187.837 478.734 -182.653C480.746 -177.476 481.818 -171.474 481.808 -165.332L481.808 -165.329L481.808 211.013L481.808 211.017C481.817 214.403 481.316 217.731 480.359 220.718C479.402 223.706 478.028 226.229 476.391 228.107C476.389 228.108 476.388 228.11 476.386 228.111L393.123 321.845Z" fill="url(#paint2_linear_6981_117672)" stroke="url(#paint3_linear_6981_117672)" stroke-width="3.14491"/>
<path d="M370.654 398.549L370.646 398.557C368.747 400.721 366.634 401.884 364.577 402.143C362.539 402.399 360.416 401.787 358.409 400.192C356.382 398.58 354.572 396.033 353.259 392.736C351.95 389.451 351.216 385.62 351.16 381.662L351.16 185.978L351.16 181.102L347.865 184.696L151.84 398.527L151.82 398.55L151.799 398.573C149.917 400.765 147.814 401.947 145.768 402.216C143.744 402.481 141.631 401.873 139.635 400.271C137.617 398.652 135.822 396.09 134.534 392.776C133.249 389.47 132.551 385.625 132.542 381.672L132.542 170.924L132.542 165.785L129.203 169.692L-66.3744 398.557C-66.3774 398.561 -66.3805 398.564 -66.3835 398.568C-68.2805 400.724 -70.3896 401.885 -72.4437 402.143C-74.4814 402.399 -76.6042 401.787 -78.6111 400.192C-80.6389 398.58 -82.4485 396.033 -83.7618 392.736L-85.524 393.438L-83.7618 392.736C-85.0703 389.451 -85.8046 385.621 -85.8607 381.663L-85.8607 190.084C-85.8619 186.647 -85.3424 183.277 -84.3601 180.265C-83.3762 177.248 -81.9728 174.725 -80.3178 172.872L-80.3124 172.866L-80.3071 172.86L188.211 -132.981C188.214 -132.984 188.218 -132.988 188.221 -132.991C191.187 -136.26 194.533 -138.053 197.867 -138.399C201.188 -138.743 204.592 -137.662 207.735 -135.084C210.897 -132.49 213.649 -128.491 215.614 -123.43C217.575 -118.38 218.647 -112.538 218.692 -106.537L218.692 109.341L218.692 114.212L221.986 110.624L428.339 -114.155L428.372 -114.192L428.404 -114.23C431.343 -117.79 434.725 -119.825 438.116 -120.339C441.481 -120.849 444.947 -119.875 448.155 -117.341C451.386 -114.788 454.205 -110.76 456.205 -105.615C458.201 -100.48 459.267 -94.5185 459.257 -88.4125L459.257 -88.4095L459.257 287.933L459.257 287.937C459.266 291.292 458.77 294.586 457.824 297.539L459.63 298.118L457.824 297.539C456.877 300.493 455.523 302.974 453.921 304.812C453.919 304.814 453.917 304.816 453.915 304.818L370.654 398.549Z" fill="url(#paint4_linear_6981_117672)" stroke="url(#paint5_linear_6981_117672)" stroke-width="3.79372"/>
</g>
<defs>
<linearGradient id="paint0_linear_6981_117672" x1="14.8787" y1="807.254" x2="514.586" y2="-153.702" gradientUnits="userSpaceOnUse">
<stop stop-color="white"/>
<stop offset="1" stop-color="#0145FF" stop-opacity="0"/>
</linearGradient>
<linearGradient id="paint1_linear_6981_117672" x1="226.802" y1="249.074" x2="226.802" y2="-295.457" gradientUnits="userSpaceOnUse">
<stop stop-color="white"/>
<stop offset="0.203125" stop-color="#0145FF" stop-opacity="0"/>
</linearGradient>
<linearGradient id="paint2_linear_6981_117672" x1="-2.99827" y1="885.433" x2="496.709" y2="-75.5236" gradientUnits="userSpaceOnUse">
<stop offset="0.192708" stop-color="white"/>
<stop offset="1" stop-color="#0145FF" stop-opacity="0"/>
</linearGradient>
<linearGradient id="paint3_linear_6981_117672" x1="102.085" y1="383.492" x2="-73.0927" y2="-228.222" gradientUnits="userSpaceOnUse">
<stop stop-color="white"/>
<stop offset="0.46875" stop-color="#0145FF" stop-opacity="0"/>
</linearGradient>
<linearGradient id="paint4_linear_6981_117672" x1="-25.2248" y1="962.353" x2="474.483" y2="1.39633" gradientUnits="userSpaceOnUse">
<stop offset="0.192708" stop-color="white"/>
<stop offset="1" stop-color="#0145FF" stop-opacity="0"/>
</linearGradient>
<linearGradient id="paint5_linear_6981_117672" x1="49.301" y1="566.326" x2="355.801" y2="-57.2394" gradientUnits="userSpaceOnUse">
<stop offset="0.505208" stop-color="white" stop-opacity="0.17"/>
<stop offset="1" stop-color="#252525" stop-opacity="0"/>
</linearGradient>
</defs>
</svg>
