<svg width="25" height="24" viewBox="0 0 25 24" fill="none" xmlns="http://www.w3.org/2000/svg">
<path d="M15.72 6.55005H6.28C6 6.55005 5.74 6.56005 5.5 6.57005C3.13 6.71005 2.5 7.58005 2.5 10.28V10.86C2.5 11.41 2.95 11.86 3.5 11.86H18.5C19.05 11.86 19.5 11.41 19.5 10.86V10.28C19.5 7.30005 18.74 6.55005 15.72 6.55005Z" fill="#1F2937"/>
<path d="M3.5 13.36C2.95 13.36 2.5 13.81 2.5 14.36V17.27C2.5 20.25 3.26 21 6.28 21H15.72C18.69 21 19.47 20.28 19.5 17.43V14.36C19.5 13.81 19.05 13.36 18.5 13.36H3.5ZM7.46 18.56H5.75C5.34 18.56 5 18.22 5 17.81C5 17.4 5.34 17.06 5.75 17.06H7.47C7.88 17.06 8.22 17.4 8.22 17.81C8.22 18.22 7.88 18.56 7.46 18.56ZM13.05 18.56H9.61C9.2 18.56 8.86 18.22 8.86 17.81C8.86 17.4 9.2 17.06 9.61 17.06H13.05C13.46 17.06 13.8 17.4 13.8 17.81C13.8 18.22 13.47 18.56 13.05 18.56Z" fill="#1F2937"/>
<path d="M22.5001 13.33V8.08998C22.5001 4.95998 20.7101 3.59998 18.0101 3.59998H9.08011C8.32011 3.59998 7.64011 3.70998 7.04011 3.93998C6.57011 4.10998 6.15011 4.35998 5.81011 4.68998C5.63011 4.85998 5.77011 5.13998 6.03011 5.13998H16.9001C19.1501 5.13998 20.9701 6.95998 20.9701 9.20998V16.38C20.9701 16.63 21.2401 16.77 21.4201 16.59C22.1101 15.86 22.5001 14.79 22.5001 13.33Z" fill="#1F2937"/>
</svg>
