<svg width="53" height="52" viewBox="0 0 53 52" fill="none" xmlns="http://www.w3.org/2000/svg">
<path d="M39.833 25.9997C39.833 20.9714 39.833 18.4572 38.2709 16.8951C36.7088 15.333 34.1947 15.333 29.1663 15.333H25.1663C22.5492 15.333 21.2406 15.333 20.1145 15.8961C18.9884 16.4591 18.2033 17.506 16.633 19.5997C14.3219 22.6812 13.1663 24.2219 13.1663 25.9997C13.1663 27.7775 14.3219 29.3182 16.633 32.3997C18.2033 34.4934 18.9884 35.5402 20.1145 36.1033C21.2406 36.6663 22.5492 36.6663 25.1663 36.6663H29.1663C34.1947 36.6663 36.7088 36.6663 38.2709 35.1042C39.833 33.5421 39.833 31.028 39.833 25.9997Z" stroke="white" stroke-width="2"/>
<path d="M23.833 22L31.833 29.9995M23.833 30L31.833 22.0005" stroke="white" stroke-width="2" stroke-linecap="round" stroke-linejoin="round"/>
</svg>
