<svg width="44" height="44" viewBox="0 0 44 44" fill="none" xmlns="http://www.w3.org/2000/svg">
<rect width="44" height="44" rx="22" fill="#C7EAD4"/>
<rect y="2" width="40" height="40" rx="20" fill="#C7EAD4"/>
<g clip-path="url(#clip0_7047_128336)">
<path d="M22.0351 30.7998C19.5044 30.7998 16.9684 30.7998 14.4431 30.7998C12.4831 30.7838 11.6004 29.9038 11.6004 27.9304C11.5915 23.9767 11.5915 20.0247 11.6004 16.0744C11.6004 14.1011 12.4857 13.1998 14.4377 13.1998C19.5026 13.1873 24.5693 13.1873 29.6377 13.1998C31.5044 13.1998 32.4004 14.1091 32.4084 15.9998C32.4244 19.9944 32.4244 23.9944 32.4084 27.9998C32.4004 29.8878 31.5044 30.7784 29.6271 30.7998C27.0964 30.8131 24.5658 30.7998 22.0351 30.7998ZM13.2831 22.7998C14.4937 22.7998 15.6831 22.8211 16.8724 22.7998C18.1044 22.7704 18.9604 23.3011 19.5897 24.3544C20.9417 26.6184 23.0564 26.5918 24.4404 24.3011C25.0457 23.3038 25.8724 22.7811 27.0538 22.8024C28.2857 22.8211 29.5177 22.8024 30.7231 22.8024C30.9391 21.6451 30.5497 21.2024 29.4804 21.2024C24.4724 21.2255 19.4662 21.2255 14.4617 21.2024C13.3604 21.1998 13.0778 21.7331 13.2831 22.7998ZM30.7284 16.3838C30.9364 15.2744 30.5791 14.7838 29.4964 14.7838C24.4991 14.8104 19.492 14.8158 14.4751 14.7998C13.3097 14.7998 13.0724 15.3784 13.2884 16.3998L30.7284 16.3838ZM13.2751 19.5464L30.7311 19.5464C30.9737 18.3464 30.4644 17.9811 29.3684 17.9891C24.4564 18.0158 19.5382 18.0193 14.6137 17.9998C13.5204 17.9838 13.0244 18.3704 13.2751 19.5464Z" fill="#22C55E"/>
<path opacity="0.4" d="M13.2827 22.8002C13.0774 21.7335 13.36 21.2002 14.4614 21.2002C19.4676 21.2198 24.4738 21.2198 29.48 21.2002C30.5467 21.2002 30.9387 21.6535 30.7227 22.8002C29.5174 22.8002 28.2854 22.8162 27.0534 22.8002C25.872 22.7789 25.0454 23.3015 24.44 24.2989C23.048 26.5869 20.9334 26.6135 19.6 24.3495C18.9707 23.2829 18.1147 22.7655 16.8827 22.7949C15.6827 22.8215 14.4934 22.8002 13.2827 22.8002Z" fill="#22C55E"/>
<path opacity="0.4" d="M30.7276 16.3842L13.2876 16.3842C13.0716 15.3735 13.3089 14.7842 14.4742 14.7842C19.4822 14.7966 24.4893 14.7966 29.4956 14.7842C30.5782 14.8002 30.9356 15.2748 30.7276 16.3842Z" fill="#22C55E"/>
<path opacity="0.4" d="M13.2748 19.5466C13.0241 18.3706 13.5201 17.984 14.6081 17.9893C19.5255 18.016 24.4437 18.016 29.3628 17.9893C30.4455 17.9893 30.9628 18.3466 30.7255 19.5466L13.2748 19.5466Z" fill="#22C55E"/>
</g>
<defs>
<clipPath id="clip0_7047_128336">
<rect width="24" height="24" fill="white" transform="translate(10 10)"/>
</clipPath>
</defs>
</svg>
